<?xml version="1.0" encoding="iso-8859-1"?>
<!-- Uploaded to: SVG Repo, www.svgrepo.com, Generator: SVG Repo Mixer Tools -->
<svg fill="#a8653b" height="200px" width="200px" version="1.1" id="Layer_1" xmlns="http://www.w3.org/2000/svg" xmlns:xlink="http://www.w3.org/1999/xlink" 
	 viewBox="0 0 512 512" xml:space="preserve">
<g>
	<g>
		<path d="M512,279.739v-79.508c0-7.726-4.105-15.012-10.705-19.012c-4.954-3.005-11.034-3.956-16.665-2.618l4.445-6.992
			c4.463-7.014,4.654-15.845,0.495-23.051l-39.755-68.857c-3.862-6.688-11.058-10.946-18.779-11.11l-0.474-0.004
			c-5.775,0-11.191,2.197-15.262,6.053l0.354-8.268c0.354-8.307-3.898-16.048-11.097-20.204L335.701,6.411
			c-3.375-1.948-7.218-2.977-11.115-2.977c-3.732,0-7.433,0.949-10.703,2.746c-5.147,2.827-8.929,7.609-10.593,13.128l-3.837-7.357
			C295.607,4.58,288.054,0,279.739,0H200.23c-7.721,0-15.004,4.1-19.015,10.712c-3.04,5.019-3.925,11.05-2.606,16.665l-7.006-4.454
			c-3.572-2.272-7.697-3.472-11.93-3.472c-3.898,0-7.742,1.031-11.116,2.979L79.7,62.183c-6.688,3.862-10.945,11.059-11.108,18.771
			c-0.129,5.874,2.12,11.545,6.073,15.747l-8.293-0.355c-8.279-0.351-16.088,3.967-20.203,11.097L6.413,176.297
			c-3.863,6.691-3.951,15.053-0.235,21.816c2.825,5.148,7.609,8.932,13.132,10.597l-7.359,3.839C4.579,216.394,0,223.947,0,232.261
			v79.508c0,7.725,4.105,15.011,10.706,19.012c4.954,3.004,11.028,3.956,16.664,2.618l-4.447,6.993
			c-4.462,7.014-4.653,15.845-0.494,23.049L62.185,432.3c3.861,6.685,11.055,10.941,18.778,11.108l0.474,0.004
			c5.776,0,11.192-2.198,15.263-6.054l-0.354,8.26c-0.358,8.308,3.892,16.052,11.096,20.213l68.858,39.756
			c6.738,3.889,15.018,3.967,21.819,0.232c5.147-2.827,8.929-7.609,10.593-13.128l3.838,7.358
			C216.396,507.421,223.95,512,232.263,512h79.509c7.722,0,15.006-4.103,19.014-10.71c3.041-5.019,3.926-11.052,2.607-16.666
			l7.006,4.454c3.572,2.272,7.697,3.472,11.93,3.472c3.898,0,7.742-1.031,11.116-2.979l68.853-39.753
			c6.691-3.861,10.949-11.058,11.113-18.772c0.129-5.872-2.12-11.543-6.073-15.747l8.293,0.355c0.316,0.013,0.633,0.02,0.948,0.02
			c0.001,0,0.001,0,0.002,0c7.914,0,15.291-4.257,19.255-11.117l39.753-68.853c3.866-6.692,3.954-15.055,0.236-21.818
			c-2.826-5.149-7.61-8.935-13.131-10.597l7.358-3.838C507.421,295.606,512,288.053,512,279.739z M478.61,272.974h-0.001
			l-37.066,19.333c-8.907,4.645-13.604,14.738-11.421,24.544c2.182,9.804,10.714,16.952,20.751,17.384l16.595,0.711l-27.17,47.059
			l-41.767-1.791c-10.129-0.433-19.136,5.933-22.162,15.549c-3.01,9.581,0.808,20.037,9.281,25.425l14.016,8.913l-47.059,27.17
			l-35.273-22.431c-8.467-5.386-19.526-4.449-26.968,2.38c-7.397,6.791-9.323,17.754-4.678,26.662l7.681,14.727h-54.339
			l-19.331-37.064c-4.694-9.002-14.762-13.599-24.545-11.422c-9.808,2.183-16.955,10.718-17.383,20.751l-0.712,16.596l-47.059-27.17
			l1.79-41.764c0.432-10.038-5.96-19.152-15.546-22.165c-9.444-2.966-19.916,0.609-25.429,9.28l-8.914,14.014l-27.17-47.06
			l22.431-35.273c5.392-8.476,4.414-19.565-2.383-26.973c-6.714-7.309-17.634-9.382-26.659-4.675l-14.727,7.681v-54.339
			l37.069-19.334c8.904-4.646,13.599-14.738,11.418-24.543c-2.183-9.804-10.714-16.951-20.751-17.383l-16.594-0.711l27.17-47.059
			l41.767,1.791c10.133,0.439,19.137-5.931,22.162-15.549c3.01-9.581-0.808-20.037-9.281-25.425L112.336,81.9l47.059-27.17
			l35.273,22.431c8.464,5.384,19.525,4.451,26.968-2.38c7.397-6.791,9.323-17.754,4.678-26.662l-7.679-14.728h54.339l19.332,37.064
			c4.703,9.02,14.782,13.595,24.545,11.422c9.808-2.183,16.955-10.718,17.383-20.751l0.712-16.596l47.059,27.171l-1.79,41.764
			c-0.432,10.037,5.961,19.152,15.546,22.164c9.337,2.936,19.86-0.521,25.429-9.278l8.913-14.016l27.17,47.06l-22.431,35.273
			c-5.392,8.476-4.414,19.565,2.382,26.97c6.738,7.338,17.671,9.369,26.66,4.677l14.727-7.681V272.974z"/>
	</g>
</g>
<g>
	<g>
		<path d="M256,89.673c-91.712,0-166.328,74.615-166.328,166.327S164.287,422.327,256,422.327S422.328,347.712,422.328,256
			S347.713,89.673,256,89.673z M256,388.935c-73.3,0-132.936-59.635-132.936-132.935S182.699,123.065,256,123.065
			S388.936,182.7,388.936,256S329.301,388.935,256,388.935z"/>
	</g>
</g>
<g>
	<g>
		<path d="M256,206.441c-27.328,0-49.559,22.232-49.559,49.559c0,27.327,22.232,49.559,49.559,49.559
			c27.327,0,49.559-22.232,49.559-49.559C305.559,228.673,283.328,206.441,256,206.441z M256,272.167
			c-8.916,0-16.167-7.253-16.167-16.167s7.253-16.167,16.167-16.167s16.167,7.253,16.167,16.167S264.916,272.167,256,272.167z"/>
	</g>
</g>
</svg>