<svg width="78" height="109" viewBox="0 0 78 109" fill="#260101" xmlns="http://www.w3.org/2000/svg">
<path d="M27.328 18.296C29.3333 18.296 31.36 18.4667 33.408 18.808C35.4987 19.1067 37.1627 19.512 38.4 20.024C38.784 20.152 39.0187 20.3227 39.104 20.536C39.232 20.7067 39.3173 21.0267 39.36 21.496L40.192 30.392C40.192 30.52 40.0853 30.6053 39.872 30.648C39.6587 30.6907 39.5093 30.6267 39.424 30.456C38.2293 26.9573 36.5227 24.2907 34.304 22.456C32.0853 20.5787 29.4187 19.64 26.304 19.64C23.4027 19.64 20.8 20.4293 18.496 22.008C16.2347 23.544 14.4427 25.7627 13.12 28.664C11.84 31.5653 11.2 34.9573 11.2 38.84C11.2 42.7653 11.8613 46.2213 13.184 49.208C14.5493 52.152 16.4053 54.4347 18.752 56.056C21.1413 57.6347 23.872 58.424 26.944 58.424C29.888 58.424 32.3627 57.6347 34.368 56.056C36.3733 54.4347 38.272 51.7893 40.064 48.12C40.1067 47.992 40.2347 47.9493 40.448 47.992C40.6613 48.0347 40.768 48.12 40.768 48.248L39.808 56.184C39.7227 56.696 39.6373 57.0373 39.552 57.208C39.4667 57.336 39.232 57.4853 38.848 57.656C34.9227 59.064 30.9547 59.768 26.944 59.768C22.3787 59.768 18.2827 58.9147 14.656 57.208C11.072 55.4587 8.256 53.0267 6.208 49.912C4.16 46.7973 3.136 43.256 3.136 39.288C3.136 35.2347 4.18133 31.6293 6.272 28.472C8.40533 25.272 11.3067 22.776 14.976 20.984C18.688 19.192 22.8053 18.296 27.328 18.296Z" fill="260101"/>
<path d="M49.08 61.392L37.432 97.936C37.432 98.1067 37.1973 98.192 36.728 98.192C36.2587 98.192 36.0027 98.1067 35.96 97.936L24.184 63.312C23.544 61.4773 22.8827 60.2613 22.2 59.664C21.5173 59.0667 20.5573 58.768 19.32 58.768C19.192 58.768 19.128 58.64 19.128 58.384C19.128 58.128 19.192 58 19.32 58C19.96 58 20.408 58.0213 20.664 58.064C21.5173 58.1493 22.6267 58.192 23.992 58.192C27.0213 58.192 29.816 58.1493 32.376 58.064C33.1013 58.0213 33.9547 58 34.936 58C35.064 58 35.128 58.128 35.128 58.384C35.128 58.64 35.064 58.768 34.936 58.768C32.632 58.768 31.48 59.7067 31.48 61.584C31.48 62.352 31.672 63.312 32.056 64.464L39.864 87.696L36.664 94.544L48.312 58C48.44 57.872 48.696 57.808 49.08 57.808C49.5067 57.808 49.7413 57.872 49.784 58L62.584 87.952L59.704 94.544L67.256 66.768C67.64 65.4027 67.832 64.2293 67.832 63.248C67.832 60.2613 66.168 58.768 62.84 58.768C62.7547 58.768 62.712 58.64 62.712 58.384C62.712 58.128 62.7547 58 62.84 58L66.424 58.064C68.5573 58.1493 70.264 58.192 71.544 58.192C72.3973 58.192 73.3787 58.1493 74.488 58.064L77.24 58C77.3253 58 77.368 58.128 77.368 58.384C77.368 58.64 77.3253 58.768 77.24 58.768C75.6187 58.768 74.0613 59.4507 72.568 60.816C71.0747 62.1387 70.008 63.9733 69.368 66.32L60.536 97.936C60.536 98.1067 60.3013 98.192 59.832 98.192C59.4053 98.192 59.1707 98.1067 59.128 97.936L46.2 67.472L49.08 61.392Z" fill="260101"/>
</svg>
